<?xml version="1.0" encoding="UTF-8"?>
<svg id="Layer_2" data-name="Layer 2" xmlns="http://www.w3.org/2000/svg" viewBox="0 0 151.51 167.01">
  <defs>
    <style>
      .cls-1 {
        fill: #fff;
      }
    </style>
  </defs>
  <g id="Layer_2-2" data-name="Layer 2">
    <path class="cls-1" d="m149.43,34.47c-1.81-2.42-4.46-4.44-7.95-6.03-3.5-1.61-7.15-2.83-10.97-3.66-3.81-.83-7.11-1.31-9.88-1.45-5.17-.26-10.04-.26-14.62,0-4.58.27-9.26.65-14.03,1.13-1.28.14-2.55.25-3.83.35-.37.03-.71-.11-1.05-.42-.35-.31-.54-.63-.57-.96v-1.27c.07-.72.05-1.4-.05-2.03-.09-.64-.42-1.21-.97-1.7-.46-.36-.89-.36-1.28,0-.39.37-.72.82-1,1.4-.28.58-.47,1.01-.57,1.31-.2.62-.38,1.16-.54,1.62-.36,1.17-.72,2.06-1.08,2.65-.36.6-.99,1.05-1.89,1.4-.9.35-2.31.76-4.25,1.25-11.87,2.98-23.7,7.29-35.49,12.95-11.79,5.66-22.34,12.24-31.62,19.73-1.99,1.53-3.6,3.44-4.81,5.74-.46,1.01-.56,1.99-.3,2.94.27.94,1.03,1.62,2.31,2,.49.1.93,0,1.32-.3.39-.29.61-.72.64-1.32.1-1.6.68-2.96,1.77-4.07,5.07-5.1,11.54-9.88,19.4-14.35,7.87-4.47,16.13-8.36,24.75-11.68,8.63-3.31,16.61-5.85,23.94-7.62,1.07-.2,1.6.18,1.59,1.15-.02.96-.31,2.06-.86,3.3-2.25,6.71-4.68,13.35-7.27,19.93-2.1,5.33-4.26,10.65-6.44,15.95-2.77,7.33-5.54,14.68-8.31,22.01v.02c-5.49,14.55-10.98,29.1-16.46,43.65-.24.63-1.91,5.78-2.42,7.37-.12.36-.25.75-.25.75-.43,1.33-.64,1.99-.66,2.08-.03.14-.06.21-.08.29-.16.65-.63,2.6.35,4.11.13.2.27.42.54.63,1.16.94,2.88.39,3.2.29.84-.34,2.11-.84,3.66-1.42,2.08-.79,3.56-1.31,4.96-1.82,2.4-.86,4.78-1.74,7.14-2.61,8.2-3.05,16.13-6.17,23.78-9.39,2.49-1.04,4.99-2.14,7.49-3.31,2.45-1.14,4.9-2.33,7.36-3.59,5.02-2.55,10.06-5.34,15.14-8.38,2.15-1.24,4.59-2.83,7.28-4.75,2.7-1.93,5.16-4.12,7.38-6.55,2.22-2.44,3.69-5.03,4.39-7.78.7-2.75.11-5.57-1.79-8.44-1.81-2.41-4.46-4.43-7.95-6.03-3.5-1.6-7.16-2.82-10.97-3.65-3.81-.83-7.11-1.32-9.88-1.45-4.67-.24-9.11-.27-13.31-.07,6.06-2.31,11.97-4.68,17.72-7.1,9.85-4.14,19.86-9.23,30-15.28,2.15-1.24,4.58-2.83,7.28-4.75,2.69-1.94,5.15-4.11,7.37-6.55,2.22-2.44,3.69-5.03,4.4-7.78.69-2.75.1-5.57-1.8-8.43Zm-52.85,54.32c3.23.27,5.58.66,6.45.81,2.62.44,5.33,1.08,8.14,1.92,2.8.84,5.3,1.89,7.49,3.14h-.02c2.2,1.25,3.72,2.74,4.58,4.45.76,1.91.55,3.88-.62,5.91s-2.85,3.98-5.04,5.86c-2.2,1.88-4.44,3.55-6.73,5.04-2.28,1.48-4.15,2.64-5.61,3.46-6.16,3.49-12.31,6.64-18.46,9.44-2.56,1.18-5.13,2.29-7.69,3.33-.69.3-1.38.58-2.07.85-9.39,3.74-19.13,7.34-29.22,10.8-1.05.36-2.11.73-3.16,1.09-1.03.33-1.63.22-1.83-.32-.1-.26-.15-.55-.15-.87.27-.84.54-1.69.82-2.53.72-2.17,1.45-4.33,2.19-6.45,1.48-4.23,3.01-8.37,4.59-12.41.09-.23.19-.46.31-.67.4-1.08.8-2.16,1.19-3.24.68-1.88,1.36-3.77,2.01-5.66,0-.14.03-.3.09-.46.07-.16.13-.34.2-.54.39-1.11.86-2.43,1.42-3.96.04-.08.06-.16.09-.24.3-.85.63-1.75.99-2.72,1.03-2.83,2.08-5.46,3.13-7.86,1.1-2.51,1.67-3.28,2.03-3.64.07-.07.13-.13.2-.19.59-.53,1.66-1.4,3.36-2.14,1.79-.78,3.38-1.04,3.82-1.11,14.24-2.22,27.5-1.09,27.5-1.09Zm49.07-45.26c-1.17,2.03-2.85,3.98-5.04,5.86-2.2,1.88-4.43,3.56-6.73,5.04-2.28,1.49-4.15,2.64-5.6,3.46-9.43,5.35-18.84,9.88-28.23,13.62-9.39,3.75-19.13,7.34-29.22,10.81-1.05.36-2.11.72-3.16,1.08-1.02.34-1.63.22-1.83-.32-.2-.54-.2-1.22,0-2.02.2-.81.39-1.46.59-1.95.1-.23.2-.48.3-.74,2.77-7.16,5.46-14.31,8.06-21.46,2.6-7.15,5.06-14.4,7.37-21.75.36-1.22.78-2.43,1.24-3.61.49-1.29,1.43-2.06,2.81-2.33,5.74-.88,11.25-1.53,16.54-1.92,5.29-.39,10.91-.39,16.88,0,1.69.09,3.84.37,6.46.81,2.61.44,5.32,1.09,8.13,1.93,2.8.84,5.29,1.88,7.48,3.13,2.19,1.26,3.71,2.74,4.57,4.45.76,1.91.55,3.88-.62,5.91Z"/>
    <path class="cls-1" d="m57.57,3.67l-18.12,54.34c-.33.42-15.27,45.54-15.47,46.08-2.37,6.06-4.64,12.35-6.78,18.85-2.14,6.51-4.23,13.06-6.28,19.65-2.31,7.58-4.68,14.99-7.12,22.25-.16.56-.46,1.08-.88,1.58-.43.5-.99.68-1.69.55-.52-.13-.87-.45-1.03-.92-.17-.47-.23-.99-.18-1.55.05-.56.13-1.04.23-1.44,2.2-10.48,4.87-20.64,7.98-30.48,3.12-9.83,6.44-19.7,9.97-29.58.29-.85.59-1.71.88-2.57.4-1.25,10.24-30.55,9.89-31.14L52.04,2.17l.18-.55c.56-1.27,2.06-1.93,3.47-1.47,1.51.49,2.35,2.07,1.88,3.52Z"/>
  </g>
</svg>